<mxfile host="app.diagrams.net" modified="2023-07-21T08:25:02.466Z" agent="Mozilla/5.0 (Windows NT 10.0; Win64; x64) AppleWebKit/537.36 (KHTML, like Gecko) Chrome/115.0.0.0 Safari/537.36" version="21.6.5" etag="M_VODSy6JHuyq9nLJ7NF" type="github">
  <diagram name="페이지-1" id="ctG3i_B3t7xJVeC1sO4r">
    <mxGraphModel>
      <root>
        <mxCell id="0" />
        <mxCell id="1" parent="0" />
      </root>
    </mxGraphModel>
  </diagram>
</mxfile>
